PathFileType	4	(X/Y/Z)	66_1_43_p0_0-208_filt_butterworth.trc
DataRate	CameraRate	NumFrames	NumMarkers	Units	OrigDataRate	OrigDataStartFrame	OrigNumFrames
52.0	52.0	7	27	m	52.0	182	208
Frame#	Time	RHip			RKnee			RAnkle			RBigToe			RSmallToe			RHeel			LHip			LKnee			LAnkle			LBigToe			LSmallToe			LHeel			Neck			Head			Nose			RShoulder			RElbow			RWrist			RThumb			RIndex			RPinky			LShoulder			LElbow			LWrist			LThumb			LIndex			LPinky			
		X1	Y1	Z1	X2	Y2	Z2	X3	Y3	Z3	X4	Y4	Z4	X5	Y5	Z5	X6	Y6	Z6	X7	Y7	Z7	X8	Y8	Z8	X9	Y9	Z9	X10	Y10	Z10	X11	Y11	Z11	X12	Y12	Z12	X13	Y13	Z13	X14	Y14	Z14	X15	Y15	Z15	X16	Y16	Z16	X17	Y17	Z17	X18	Y18	Z18	X19	Y19	Z19	X20	Y20	Z20	X21	Y21	Z21	X22	Y22	Z22	X23	Y23	Z23	X24	Y24	Z24	X25	Y25	Z25	X26	Y26	Z26	X27	Y27	Z27	
182	3.5	0.5482962962888257	0.942922506056449	0.8006813310158339	0.5358255295230085	1.0311350848928862	1.2093438897466706	0.5195006990952373	1.1558344455613492	1.6154329448918399	0.4993515831843188	0.921073327615019	1.6595236131673574	0.5657182969175151	0.9355135962350192	1.6449427693169507	0.503542583946048	1.2421902843545085	1.6732766489839381	0.3462641263675488	0.94406682738315	0.7955370516514664	0.3387455307371158	1.0441536720950195	1.203121347804683	0.34388874348420123	1.146371281992172	1.5943085999698894	0.3313406012345639	0.9266401986794615	1.635338537237783	0.2771067985910038	1.0074824424923445	1.6416934933141405	0.36228231308843434	1.2285367951087647	1.6527328481342658	0.4631175782768655	0.7967665313152688	0.25223420366633476	0.4649091308004106	0.6908171152843745	0.02428693205634165	0.44561064691122637	0.6438091216391657	0.1610297339352484	0.608376175630759	0.7871541923051796	0.34346811673469224	0.6448125539967489	0.8599377055801827	0.6100475997528215	0.5082544091606003	0.7541330048959269	0.7981290972639189	0.41119111895446825	0.7455259511222224	0.8687957405360303	0.40206896088818056	0.7759003616826852	0.8904348502158616	0.41420894751822585	0.7822066339596465	0.8907087276757923	0.31167966570434036	0.8469257230652085	0.3208492699127627	0.26920539609140753	0.8590273604635945	0.5753423182205357	0.3347223170926712	0.7408553799046195	0.7764043080230356	0.407436983697595	0.7005139359931551	0.8296404108082749	0.40605312060893833	0.6932017746225239	0.8668012906848592	0.38624196551463524	0.756518198651562	0.8927271054022607
183	3.519230769230769	0.5503920958113256	0.9424249439543452	0.800778902038119	0.537660573756211	1.0308330001670218	1.2097208348433386	0.5194489043538113	1.154860539163413	1.6152049218147742	0.4998540125529602	0.9232430694811906	1.6604212278995822	0.5656647476543368	0.9354761618439933	1.644224953662676	0.5026570312079609	1.236364861258134	1.670457704846326	0.3482538468651901	0.9471801453152779	0.7927483813119425	0.34007260789728794	1.0428522888577918	1.2029187724584236	0.3447650995265507	1.1462773661815275	1.5926287861466493	0.33137664386587007	0.9264712604449933	1.6352942163126896	0.2770872521341819	1.0074903129607982	1.641674531445144	0.3621042281711537	1.2270941134133215	1.652590971255996	0.4633769147674032	0.7973062044492574	0.2522962774863845	0.4648308742930765	0.690963347666	0.02393072639033461	0.4466482615486411	0.6469648713539629	0.16096016126557738	0.6084994526234476	0.7873223120173645	0.3437671311452463	0.6475227244785763	0.8653108846025902	0.6093542997571483	0.5184127549110227	0.7483400952156996	0.7995334698481973	0.41524703658556106	0.7488253328136137	0.8770705891494979	0.40842202485035695	0.7794898900277476	0.8964186413426447	0.4251128752195318	0.8044507135497725	0.8984138043194259	0.31162310046007985	0.8466339111217642	0.32089971553290997	0.2679965132038708	0.863011202269358	0.5752634138776735	0.3257977173012878	0.7378890505589282	0.7792175789573311	0.39835404886207926	0.6899117132160284	0.8377962485154111	0.3919405124963152	0.6714235870634908	0.8662192129714092	0.36365682156653084	0.752563285333011	0.8977326547948861
184	3.5384615384615383	0.5530329080381694	0.9420642885412958	0.8018197475407726	0.5401524938133271	1.0305012754362461	1.2094943868026076	0.5193516417300923	1.1539475350673034	1.6141414801652516	0.5001210959214839	0.9243896174786961	1.6608737087258179	0.5655627607437674	0.9355419081608891	1.6438058309309027	0.5009166637748088	1.2291212472608348	1.6657672099074678	0.34918138837874046	0.9533122960032698	0.7926158907123833	0.3408585531218992	1.0427193160455115	1.2051632865227384	0.34492857933417537	1.146938595743634	1.5932279967954772	0.33105687698752817	0.9249980700532542	1.6348166318539148	0.2768640793940331	1.0079174349557285	1.6416996069258458	0.36172163206144303	1.224978348823575	1.6518529851345298	0.4632536141549679	0.7976462716764988	0.25228276766375873	0.4650817955228337	0.6902328081256435	0.024406714016916724	0.44705608480713943	0.6482860433333548	0.16092401633547293	0.6087028037077753	0.7879037884347369	0.3447394154081266	0.6488532002829299	0.8681229274678128	0.6081496570874165	0.5316991040691573	0.7468007939605246	0.7989319771906768	0.4245678038800442	0.7464367333875477	0.8813645710451609	0.42329396872384045	0.7687706300148073	0.8996049892323323	0.44690841605262926	0.8198029239479969	0.9075607380840764	0.3116686648886499	0.8465967321938737	0.32101347185894935	0.265378142356968	0.8727684913960085	0.5767996747468772	0.3195568340984343	0.7391295370767613	0.7826839359225783	0.39023348799256774	0.6856221700936325	0.8467513288545359	0.37715150414760007	0.6620074115345365	0.868513406609667	0.3428546793334867	0.7446914338571139	0.9018784177217961
185	3.5576923076923075	0.5548533420245704	0.9413963340963606	0.8029984968727839	0.541874783322796	1.0312964688632216	1.211122841932265	0.5192140646271237	1.1536864660093193	1.6135092472499704	0.500421512065336	0.9255378910637067	1.6612688430522844	0.5654198690614616	0.9356127926901749	1.6436133005328746	0.49939146348014674	1.2244601184257058	1.6621705197233858	0.3498526621366821	0.9586550744606204	0.7934485422981902	0.34131850517321527	1.0443622543719955	1.2080886914032458	0.3448038416269711	1.147909151344141	1.5963817976657588	0.3302361056249047	0.9223521426543418	1.63398972084087	0.27661231257176255	1.0081643506558875	1.641676369294422	0.3613321869663084	1.2231979827973316	1.6512359943871966	0.4631489536373924	0.7979141392102057	0.2522540865975748	0.4659669561069127	0.6873843731911827	0.025882212052088863	0.4470820349208177	0.6486728597392849	0.16091664682961457	0.6088850369148029	0.7887507256040194	0.3460822602370049	0.6496049582284952	0.8699870250581234	0.6077155768308523	0.5441701168727007	0.7471501999519748	0.7992354576799306	0.4377418573836095	0.7425841603025634	0.8837153758912674	0.4436461305145378	0.7500192502520245	0.9014863121441903	0.4739128074082457	0.812866703926727	0.9157906683543082	0.3117556922967923	0.8466309236857654	0.32113427759169394	0.2618924443117865	0.8860233569517426	0.5796554519572081	0.31208964955139334	0.7487993623240314	0.786080796794635	0.37602320787804994	0.6926876020659182	0.8562780194349575	0.3589765821013857	0.6733409186509929	0.8753759837463877	0.3271101507002201	0.7383974090392884	0.9052577606638734
186	3.576923076923077	0.555328125471357	0.940714305242776	0.8035695564522994	0.5426094946512453	1.033495780185534	1.2156894122090363	0.5190839676484672	1.153802015422344	1.6134170358394606	0.5014908124023022	0.9291839483450196	1.6625918775854063	0.5653461058457809	0.9355624247511767	1.6439298980591963	0.49856675519000293	1.2234016587651748	1.6616049115463003	0.3503151980926864	0.959879427620502	0.7954072517643753	0.34146591854442343	1.0472822835008282	1.2102503878306263	0.3446714791807582	1.1483576053910665	1.599921108182595	0.32938730048138104	0.9208998634390144	1.6333480270175722	0.27642978000386365	1.0080332999802628	1.6416168573407344	0.36115082600858	1.222062620408226	1.6514090607445562	0.4631118048854167	0.798128209065245	0.2522237152570532	0.4672162964440005	0.6832495879559396	0.027853706191408905	0.44737619756223473	0.6477955796345795	0.16109593364289987	0.6089247610866473	0.789357464337813	0.34702565044826544	0.6507749576625175	0.8731624473204385	0.6079590960020533	0.5527118743853356	0.7497928336046171	0.8031344818234354	0.45333142680816235	0.7415692379822897	0.887114969422897	0.4659342507929541	0.7347103705193071	0.9047824879119051	0.4982481252496781	0.7866571944271599	0.9210174914784026	0.3118186147051315	0.8465932538338138	0.3212189990387617	0.25912453359703763	0.8957006955785356	0.5823952477764471	0.30042867741975465	0.7697630501093387	0.7897397639590941	0.35639709821340937	0.7077802522936397	0.8649125996340538	0.3407116096583134	0.6979330765238644	0.8845262533780698	0.3119033824837615	0.7383067022295815	0.907239135198774
187	3.5961538461538463	0.555089922498049	0.9409945999088638	0.8040145214722002	0.5428340524394981	1.035933776229107	1.2205256226508596	0.5190076424165607	1.1539582555131145	1.6134726182494248	0.5031285955179694	0.9345143405590928	1.664566963190808	0.5657458701178188	0.9354836807057716	1.645285610381702	0.4980946005203443	1.2243705027081633	1.663324866816539	0.34980212478066824	0.956342955211765	0.7984663861729552	0.3412929288823694	1.0501344956857823	1.2114932270630892	0.344430135480901	1.1492702742216643	1.6018533020906403	0.3289275253732616	0.9214609843611009	1.6329206334703326	0.2763423648213422	1.007860631519367	1.6415982455947091	0.3612324508749612	1.2215745430213245	1.6526255649911952	0.4630937047600476	0.7982206278190521	0.2521887377751697	0.4681125118196765	0.6802691742577248	0.02922440893176823	0.44833750138642153	0.6442939786682154	0.16154437739945648	0.60883224435835	0.7894878171570991	0.3472863778736039	0.6523817060890543	0.87743484185473	0.6083832299088079	0.5593688490675122	0.7567680258114133	0.811289391072651	0.47010347775430833	0.7438693551464608	0.8922419484143653	0.48705440202763883	0.7296274367668797	0.911488425899631	0.5182719656889259	0.7608805799509348	0.9243056195237684	0.31183575974686994	0.8465035496693322	0.3212337695687695	0.2566631798715883	0.8996081648278451	0.5828963380107723	0.28520835199427863	0.7947068036273467	0.7929118037549714	0.33880588568520487	0.7236711824039278	0.8705953339695778	0.3258260630452646	0.7187025113179537	0.8918852035597971	0.2900922575343025	0.743095816293211	0.9073511801902828
188	3.615384615384616	0.5549323499582955	0.9424999001684772	0.8054577925228608	0.5429363213996119	1.0378047228001899	1.223102509496294	0.5189528377305305	1.1540863857742134	1.6134724601153678	0.5044267045835966	0.9383382934184771	1.6660425516522783	0.5666278354690446	0.9358090565146582	1.647559970639393	0.4979051167699504	1.2258374115826147	1.6652755451857484	0.3481050321348737	0.9501090385024599	0.8004292894714244	0.34097210665910094	1.0515598685170162	1.2123134306887737	0.34364090749769055	1.15319970620914	1.6023063791580092	0.32866297579602965	0.9218049773811021	1.632982512989584	0.27634520891464787	1.0080244178285753	1.6416874295240718	0.3614279158478166	1.221521901098441	1.6541641248930854	0.4630663828075394	0.7982135386054019	0.2521592771499068	0.468370214129636	0.679418659513767	0.029593477272658267	0.44961982427652236	0.6389380137615122	0.16186992352603105	0.6087231459413643	0.7893794457285652	0.3471970382081375	0.6535656349446985	0.8806006974843693	0.6087294120232424	0.5691495058652158	0.7726994687553322	0.8231988295826382	0.4879669009086006	0.7468621312023782	0.9000451402511601	0.5060584980611845	0.7343844425358426	0.9226988858979134	0.5389702829568619	0.7570946685041136	0.9311739112412156	0.3118209490401387	0.8464316779964548	0.32116234068202176	0.25204376921211114	0.9007234140145914	0.5798194251904618	0.26916870092724593	0.8096749534057354	0.7940993365125141	0.3250593703822383	0.7383342779683323	0.8742996591280843	0.3095579535925792	0.7263823526187585	0.8954200697929249	0.2621553971457784	0.7472830594947725	0.9060904230234068
